# xmcd
#
# Track frame offsets: 
#        150
#        25133
#        37245
#        53156
#        66729
#        95568
#        117649
#        131667
#        151220
#        165049
#        179956
#
# Disc length: 2688 seconds
#
# Revision: 0
# Processed by: cddbd v1.5.2PL0 Copyright (c) Steve Scherf et al.
# Submitted via: ExactAudioCopy v1.0b1
#
DISCID=a00a7e0b
DTITLE=Willie Nelson - Songbird
DYEAR=2006
DGENRE=Crossover
TTITLE0=1 Rainy Day Blues
TTITLE1=2 Songbird
TTITLE2=3 Blue Hotel
TTITLE3=4 Back to Earth
TTITLE4=5 Stella Blue
TTITLE5=6 Hallelujah
TTITLE6=7 $1000 Wedding
TTITLE7=8 We Don’t Run
TTITLE8=9 Yours Love
TTITLE9=10 Sad Songs and Waltzes
TTITLE10=11 Amazing Grace
EXTD=
EXTT0=
EXTT1=
EXTT2=
EXTT3=
EXTT4=
EXTT5=
EXTT6=
EXTT7=
EXTT8=
EXTT9=
EXTT10=
PLAYORDER=
